<?xml version="1.0" encoding="UTF-8" standalone="no"?>
<!-- Created with Inkscape (http://www.inkscape.org/) -->

<svg
   width="35.550301mm"
   height="34.854858mm"
   viewBox="0 0 35.550301 34.854858"
   version="1.1"
   id="svg14503"
   xmlns:inkscape="http://www.inkscape.org/namespaces/inkscape"
   xmlns:sodipodi="http://sodipodi.sourceforge.net/DTD/sodipodi-0.dtd"
   xmlns="http://www.w3.org/2000/svg"
   xmlns:svg="http://www.w3.org/2000/svg">
  <sodipodi:namedview
     id="namedview14505"
     pagecolor="#ffffff"
     bordercolor="#000000"
     borderopacity="0.25"
     inkscape:showpageshadow="2"
     inkscape:pageopacity="0.0"
     inkscape:pagecheckerboard="0"
     inkscape:deskcolor="#d1d1d1"
     inkscape:document-units="mm"
     showgrid="false" />
  <defs
     id="defs14500">
    <clipPath
       clipPathUnits="userSpaceOnUse"
       id="clipPath13635">
      <g
         id="g13651"
         transform="matrix(2.0920502,0,0,2.0920502,-120.57838,-1440.9095)">
        <g
           id="g13649"
           transform="translate(-1.64e-6,1.9e-5)">
          <g
             id="g13647"
             transform="translate(-1.64e-6,1.9e-5)">
            <g
               id="g13645"
               transform="translate(-1.64e-6,1.9e-5)">
              <g
                 id="g13643"
                 transform="translate(-1.64e-6,1.9e-5)">
                <g
                   id="g13641"
                   transform="translate(-1.64e-6,1.9e-5)">
                  <g
                     id="g13639"
                     transform="translate(-1.64e-6,1.9e-5)">
                    <path
                       d="M 49.086124,651.67217 H 288.19479 V 759.92815 H 49.086124 Z"
                       id="path13637"
                       style="stroke-width:0.478" />
                  </g>
                </g>
              </g>
            </g>
          </g>
        </g>
      </g>
    </clipPath>
    <clipPath
       clipPathUnits="userSpaceOnUse"
       id="clipPath78">
      <path
         d="M 0,0 H 134.72205 V 134.72205 H 0 Z"
         id="path76" />
    </clipPath>
    <clipPath
       clipPathUnits="userSpaceOnUse"
       id="clipPath14189">
      <g
         id="g14205"
         transform="matrix(2.0920502,0,0,2.0920502,-282.19736,-1440.9095)">
        <g
           id="g14203"
           transform="translate(1.92e-6,1.9e-5)">
          <g
             id="g14201"
             transform="translate(1.92e-6,1.9e-5)">
            <g
               id="g14199"
               transform="translate(1.14e-6,1.9e-5)">
              <g
                 id="g14197"
                 transform="translate(-1.64e-6,1.9e-5)">
                <g
                   id="g14195"
                   transform="translate(-1.64e-6,1.9e-5)">
                  <g
                     id="g14193"
                     transform="translate(-1.64e-6,1.9e-5)">
                    <path
                       d="M 49.086124,651.67217 H 288.19479 V 759.92815 H 49.086124 Z"
                       id="path14191"
                       style="stroke-width:0.478" />
                  </g>
                </g>
              </g>
            </g>
          </g>
        </g>
      </g>
    </clipPath>
    <clipPath
       clipPathUnits="userSpaceOnUse"
       id="clipPath172">
      <path
         d="M 0,0 H 32.11266 V 134.72205 H 0 Z"
         id="path170" />
    </clipPath>
    <clipPath
       clipPathUnits="userSpaceOnUse"
       id="clipPath13914">
      <g
         id="g13930"
         transform="matrix(2.0920502,0,0,2.0920502,-120.57838,-1381.8985)">
        <g
           id="g13928"
           transform="translate(-1.64e-6,1.7e-5)">
          <g
             id="g13926"
             transform="translate(-1.64e-6,1.7e-5)">
            <g
               id="g13924"
               transform="translate(-1.64e-6,1.9e-5)">
              <g
                 id="g13922"
                 transform="translate(-1.64e-6,1.9e-5)">
                <g
                   id="g13920"
                   transform="translate(-1.64e-6,1.9e-5)">
                  <g
                     id="g13918"
                     transform="translate(-1.64e-6,1.9e-5)">
                    <path
                       d="M 49.086124,651.67217 H 288.19479 V 759.92815 H 49.086124 Z"
                       id="path13916"
                       style="stroke-width:0.478" />
                  </g>
                </g>
              </g>
            </g>
          </g>
        </g>
      </g>
    </clipPath>
    <clipPath
       clipPathUnits="userSpaceOnUse"
       id="clipPath1042">
      <path
         d="M 0,0 H 134.72205 V 32.11266 H 0 Z"
         id="path1040" />
    </clipPath>
  </defs>
  <g
     inkscape:label="Layer 1"
     inkscape:groupmode="layer"
     id="layer1"
     transform="translate(-86.954325,-150.33145)">
    <g
       id="g60"
       transform="matrix(0.16862777,0,0,-0.16862777,88.967748,173.08292)"
       clip-path="url(#clipPath13635)"
       inkscape:export-filename="clusters.png"
       inkscape:export-xdpi="96"
       inkscape:export-ydpi="96">
      <g
         id="g62">
        <g
           id="g64">
          <g
             id="g66" />
        </g>
        <g
           id="g68">
          <g
             id="g70" />
        </g>
        <path
           d="M 0,0 V 134.72205 H 134.72205 V 0 Z"
           style="fill:none;stroke:#000000;stroke-width:0.3985;stroke-linecap:butt;stroke-linejoin:miter;stroke-miterlimit:10;stroke-dasharray:none;stroke-opacity:1"
           id="path72" />
        <g
           id="g74"
           clip-path="url(#clipPath78)" />
      </g>
      <g
         id="g80">
        <path
           d="m 23.23111,19.246 c 0,2.20095 -1.78416,3.98511 -3.98511,3.98511 -2.20094,0 -3.9851,-1.78416 -3.9851,-3.98511 0,-2.20094 1.78416,-3.9851 3.9851,-3.9851 2.20095,0 3.98511,1.78416 3.98511,3.9851 z"
           style="fill:#4e79a7;fill-opacity:1;fill-rule:nonzero;stroke:#4e79a7;stroke-width:0.3985;stroke-linecap:butt;stroke-linejoin:miter;stroke-miterlimit:10;stroke-dasharray:none;stroke-opacity:1"
           id="path82" />
      </g>
      <g
         id="g84">
        <path
           d="m 32.85411,115.47604 c 0,2.20095 -1.78416,3.98511 -3.98511,3.98511 -2.20094,0 -3.9851,-1.78416 -3.9851,-3.98511 0,-2.20094 1.78416,-3.9851 3.9851,-3.9851 2.20095,0 3.98511,1.78416 3.98511,3.9851 z"
           style="fill:#f28e2b;fill-opacity:1;fill-rule:nonzero;stroke:#f28e2b;stroke-width:0.3985;stroke-linecap:butt;stroke-linejoin:miter;stroke-miterlimit:10;stroke-dasharray:none;stroke-opacity:1"
           id="path86" />
      </g>
      <g
         id="g88">
        <path
           d="m 119.46115,28.869 c 0,2.20095 -1.78416,3.98511 -3.98511,3.98511 -2.20094,0 -3.9851,-1.78416 -3.9851,-3.98511 0,-2.20094 1.78416,-3.9851 3.9851,-3.9851 2.20095,0 3.98511,1.78416 3.98511,3.9851 z"
           style="fill:#59a14f;fill-opacity:1;fill-rule:nonzero;stroke:#59a14f;stroke-width:0.3985;stroke-linecap:butt;stroke-linejoin:miter;stroke-miterlimit:10;stroke-dasharray:none;stroke-opacity:1"
           id="path90" />
      </g>
      <g
         id="g92">
        <g
           id="g94"
           transform="translate(41.879,-10.738)">
          <g
             id="g96">
            <g
               id="g98"
               transform="translate(-56.762,-177.556)">
              <text
                 xml:space="preserve"
                 transform="matrix(1,0,0,-1,56.762,177.556)"
                 style="font-variant:normal;font-size:8.9664px;font-family:'Nimbus Roman';-inkscape-font-specification:NimbusRomNo9L-Regu;writing-mode:lr-tb;fill:#000000;fill-opacity:1;fill-rule:nonzero;stroke:none"
                 id="text102"><tspan
                   x="0 5.9805889 9.9616709 12.454329 16.937531 19.833677 23.814758 26.307417 31.041677 34.027489 41.003345 47.979206"
                   y="0"
                   sodipodi:role="line"
                   id="tspan100">Rainfall[mm]</tspan></text>
              <g
                 id="g104"
                 transform="translate(56.762,177.556)" />
            </g>
          </g>
          <g
             id="g106"
             transform="translate(-41.879,10.738)" />
        </g>
      </g>
      <g
         id="g108">
        <g
           id="g110"
           transform="rotate(90,-24.732,18.917)">
          <g
             id="g112">
            <g
               id="g114"
               transform="translate(-9.068,-231.943)">
              <text
                 xml:space="preserve"
                 transform="matrix(1,0,0,-1,9.068,231.943)"
                 style="font-variant:normal;font-size:8.9664px;font-family:'Nimbus Roman';-inkscape-font-specification:NimbusRomNo9L-Regu;writing-mode:lr-tb;fill:#000000;fill-opacity:1;fill-rule:nonzero;stroke:none"
                 id="text118"><tspan
                   x="0 4.9853182 7.9711294 11.952211 15.440141 18.92807 23.41127 26.397081 32.619762 35.605576 40.456398 44.437477"
                   y="0"
                   sodipodi:role="line"
                   id="tspan116">Pressure[Pa]</tspan></text>
              <g
                 id="g120"
                 transform="translate(9.068,231.943)" />
            </g>
          </g>
          <g
             id="g122"
             transform="translate(5.816,-43.649)" />
        </g>
      </g>
    </g>
    <g
       id="g154"
       transform="matrix(0.16862777,0,0,-0.16862777,116.2212,173.08292)"
       clip-path="url(#clipPath14189)">
      <g
         id="g156">
        <g
           id="g158">
          <g
             id="g160" />
        </g>
        <g
           id="g162">
          <g
             id="g164" />
        </g>
        <path
           d="M 0,0 V 134.72205 H 32.11266 V 0 Z"
           style="fill:none;stroke:#000000;stroke-width:0.3985;stroke-linecap:butt;stroke-linejoin:miter;stroke-miterlimit:10;stroke-dasharray:none;stroke-opacity:1"
           id="path166" />
        <g
           id="g168"
           clip-path="url(#clipPath172)" />
      </g>
      <g
         id="g174">
        <path
           d="m 12.01326,19.246 c 0,2.20095 -1.78416,3.98511 -3.98511,3.98511 -2.20094,0 -3.9851,-1.78416 -3.9851,-3.98511 0,-2.20094 1.78416,-3.9851 3.9851,-3.9851 2.20095,0 3.98511,1.78416 3.98511,3.9851 z"
           style="fill:#4e79a7;fill-opacity:1;fill-rule:nonzero;stroke:#4e79a7;stroke-width:0.3985;stroke-linecap:butt;stroke-linejoin:miter;stroke-miterlimit:10;stroke-dasharray:none;stroke-opacity:1"
           id="path176" />
      </g>
      <g
         id="g178">
        <path
           d="m 13.6189,115.47604 c 0,2.20095 -1.78417,3.98511 -3.98511,3.98511 -2.20094,0 -3.98511,-1.78416 -3.98511,-3.98511 0,-2.20094 1.78417,-3.9851 3.98511,-3.9851 2.20094,0 3.98511,1.78416 3.98511,3.9851 z"
           style="fill:#f28e2b;fill-opacity:1;fill-rule:nonzero;stroke:#f28e2b;stroke-width:0.3985;stroke-linecap:butt;stroke-linejoin:miter;stroke-miterlimit:10;stroke-dasharray:none;stroke-opacity:1"
           id="path180" />
      </g>
      <g
         id="g182">
        <path
           d="m 28.0696,28.869 c 0,2.20095 -1.78417,3.98511 -3.98511,3.98511 -2.20095,0 -3.98511,-1.78416 -3.98511,-3.98511 0,-2.20094 1.78416,-3.9851 3.98511,-3.9851 2.20094,0 3.98511,1.78416 3.98511,3.9851 z"
           style="fill:#59a14f;fill-opacity:1;fill-rule:nonzero;stroke:#59a14f;stroke-width:0.3985;stroke-linecap:butt;stroke-linejoin:miter;stroke-miterlimit:10;stroke-dasharray:none;stroke-opacity:1"
           id="path184" />
      </g>
      <g
         id="g186">
        <g
           id="g188"
           transform="translate(-5.938,-10.738)">
          <g
             id="g190">
            <g
               id="g192"
               transform="translate(-170.565,-177.556)">
              <text
                 xml:space="preserve"
                 transform="matrix(1,0,0,-1,170.565,177.556)"
                 style="font-variant:normal;font-size:8.9664px;font-family:'Nimbus Roman';-inkscape-font-specification:NimbusRomNo9L-Regu;writing-mode:lr-tb;fill:#000000;fill-opacity:1;fill-rule:nonzero;stroke:none"
                 id="text196"><tspan
                   x="0 5.9805889 9.9616709 12.454329 16.937531 19.833677 23.814758 26.307417 31.041677 34.027489 41.003345"
                   y="0"
                   sodipodi:role="line"
                   id="tspan194">Rainfall[m]</tspan></text>
              <g
                 id="g198"
                 transform="translate(170.565,177.556)" />
            </g>
          </g>
          <g
             id="g200"
             transform="translate(5.938,10.738)" />
        </g>
      </g>
      <g
         id="g202">
        <g
           id="g204"
           transform="rotate(90,-23.9105,19.7385)">
          <g
             id="g206">
            <g
               id="g208"
               transform="translate(-172.331,-231.943)">
              <text
                 xml:space="preserve"
                 transform="matrix(1,0,0,-1,172.331,231.943)"
                 style="font-variant:normal;font-size:8.9664px;font-family:'Nimbus Roman';-inkscape-font-specification:NimbusRomNo9L-Regu;writing-mode:lr-tb;fill:#000000;fill-opacity:1;fill-rule:nonzero;stroke:none"
                 id="text212"><tspan
                   x="0 4.9853182 7.9711294 11.952211 15.440141 18.92807 23.41127 26.397081 32.619762 35.605576 40.456398 44.437477"
                   y="0"
                   sodipodi:role="line"
                   id="tspan210">Pressure[Pa]</tspan></text>
              <g
                 id="g214"
                 transform="translate(172.331,231.943)" />
            </g>
          </g>
          <g
             id="g216"
             transform="translate(4.172,-43.649)" />
        </g>
      </g>
    </g>
    <g
       id="g1024"
       transform="matrix(0.16862777,0,0,-0.16862777,88.967748,183.03382)"
       clip-path="url(#clipPath13914)">
      <g
         id="g1026">
        <g
           id="g1028">
          <g
             id="g1030" />
        </g>
        <g
           id="g1032">
          <g
             id="g1034" />
        </g>
        <path
           d="M 0,0 V 32.11266 H 134.72205 V 0 Z"
           style="fill:none;stroke:#000000;stroke-width:0.3985;stroke-linecap:butt;stroke-linejoin:miter;stroke-miterlimit:10;stroke-dasharray:none;stroke-opacity:1"
           id="path1036" />
        <g
           id="g1038"
           clip-path="url(#clipPath1042)" />
      </g>
      <g
         id="g1044">
        <path
           d="m 23.23111,8.02815 c 0,2.20095 -1.78416,3.98511 -3.98511,3.98511 -2.20094,0 -3.9851,-1.78416 -3.9851,-3.98511 0,-2.20094 1.78416,-3.9851 3.9851,-3.9851 2.20095,0 3.98511,1.78416 3.98511,3.9851 z"
           style="fill:#4e79a7;fill-opacity:1;fill-rule:nonzero;stroke:#4e79a7;stroke-width:0.3985;stroke-linecap:butt;stroke-linejoin:miter;stroke-miterlimit:10;stroke-dasharray:none;stroke-opacity:1"
           id="path1046" />
      </g>
      <g
         id="g1048">
        <path
           d="m 32.85411,24.08449 c 0,2.20094 -1.78416,3.98511 -3.98511,3.98511 -2.20094,0 -3.9851,-1.78417 -3.9851,-3.98511 0,-2.20095 1.78416,-3.98511 3.9851,-3.98511 2.20095,0 3.98511,1.78416 3.98511,3.98511 z"
           style="fill:#f28e2b;fill-opacity:1;fill-rule:nonzero;stroke:#f28e2b;stroke-width:0.3985;stroke-linecap:butt;stroke-linejoin:miter;stroke-miterlimit:10;stroke-dasharray:none;stroke-opacity:1"
           id="path1050" />
      </g>
      <g
         id="g1052">
        <path
           d="m 119.46115,9.63379 c 0,2.20094 -1.78416,3.98511 -3.98511,3.98511 -2.20094,0 -3.9851,-1.78417 -3.9851,-3.98511 0,-2.20094 1.78416,-3.98511 3.9851,-3.98511 2.20095,0 3.98511,1.78417 3.98511,3.98511 z"
           style="fill:#59a14f;fill-opacity:1;fill-rule:nonzero;stroke:#59a14f;stroke-width:0.3985;stroke-linecap:butt;stroke-linejoin:miter;stroke-miterlimit:10;stroke-dasharray:none;stroke-opacity:1"
           id="path1054" />
      </g>
      <g
         id="g1056">
        <g
           id="g1058"
           transform="translate(41.878,-11.366)">
          <g
             id="g1060">
            <g
               id="g1062"
               transform="translate(-56.762,-117.917)">
              <text
                 xml:space="preserve"
                 transform="matrix(1,0,0,-1,56.762,117.917)"
                 style="font-variant:normal;font-size:8.9664px;font-family:'Nimbus Roman';-inkscape-font-specification:NimbusRomNo9L-Regu;writing-mode:lr-tb;fill:#000000;fill-opacity:1;fill-rule:nonzero;stroke:none"
                 id="text1066"><tspan
                   x="0 5.9805889 9.9616709 12.454329 16.937531 19.833677 23.814758 26.307417 31.041677 34.027489 41.003345 47.979206"
                   y="0"
                   sodipodi:role="line"
                   id="tspan1064">Rainfall[mm]</tspan></text>
              <g
                 id="g1068"
                 transform="translate(56.762,117.917)" />
            </g>
          </g>
          <g
             id="g1070"
             transform="translate(-41.878,11.366)" />
        </g>
      </g>
      <g
         id="g1072">
        <g
           id="g1074"
           transform="rotate(90,2.0405,-7.8565)">
          <g
             id="g1076">
            <g
               id="g1078"
               transform="translate(-9.068,-119.386)">
              <text
                 xml:space="preserve"
                 transform="matrix(1,0,0,-1,9.068,119.386)"
                 style="font-variant:normal;font-size:8.9664px;font-family:'Nimbus Roman';-inkscape-font-specification:NimbusRomNo9L-Regu;writing-mode:lr-tb;fill:#000000;fill-opacity:1;fill-rule:nonzero;stroke:none"
                 id="text1082"><tspan
                   x="0 4.9853182 7.9711294 11.952211 15.440141 18.92807 23.41127 26.397081 32.619762 35.605576 40.088776 44.939598 48.920677"
                   y="0"
                   sodipodi:role="line"
                   id="tspan1080">Pressure[hPa]</tspan></text>
              <g
                 id="g1084"
                 transform="translate(9.068,119.386)" />
            </g>
          </g>
          <g
             id="g1086"
             transform="translate(5.816,9.897)" />
        </g>
      </g>
    </g>
  </g>
</svg>
